<?xml version="1.0" encoding="utf-8"?>
<!-- Generator: Adobe Illustrator 27.5.0, SVG Export Plug-In . SVG Version: 6.00 Build 0)  -->
<svg version="1.1" xmlns="http://www.w3.org/2000/svg" xmlns:xlink="http://www.w3.org/1999/xlink" x="0px" y="0px"
	 viewBox="0 0 3710 3710" style="enable-background:new 0 0 3710 3710;" xml:space="preserve">
<g id="Background">
	<g>
		<g>
			<rect style="fill:#FFFFFF;" width="3710" height="3710"/>
		</g>
	</g>
</g>
<g id="Illustration">
	<g>
		<path style="fill:#F4F7FA;" d="M2919.343,2850.456c-72.965,75.211-138.253,119.422-188.239,152.798
			c-487.504,325.511-1044.775,231.691-1217.069,199.623c-277.976-51.737-512.626-88.235-714.232-270.378
			c-458.11-413.884-435.828-1277.278-85.776-1812.113c41.506-63.416,391.028-581.516,949.505-654.521
			c13.66-1.786,23.852-2.802,32.778-3.747c86.395-9.147,621.768-57.425,1058.312,308.311
			c62.489,52.353,163.052,146.785,256.307,290.809C3351.909,1587.857,3352.989,2403.471,2919.343,2850.456z"/>
		<g>
			<g>
				<g>
					<g>
						<path style="fill:#97A6B7;" d="M2740.734,1468.976l-77.603,0.134c-5.346-51.261-17.67-100.468-36.008-146.697l65.614-38.052
							c17.932-10.399,24.064-33.854,13.728-52.442l-27.573-49.584c-10.399-18.702-33.494-25.57-51.614-15.286l-64.797,36.776
							c-30.158-42.261-66.151-80.365-106.919-113.138l37.269-64.021c10.694-18.37,4.35-42.544-14.202-54.055l-49.603-30.776
							c-18.752-11.634-42.811-6.135-53.705,12.343l-37.355,63.366c-47.997-22.356-99.862-38.484-154.567-47.135v-75.144
							c0-22.168-18.236-40.971-40.801-42l-60.394-2.756c-22.855-1.043-41.441,16.277-41.441,38.689v75.97
							c-56.391,4.698-110.752,17.375-161.856,36.99l-40.314-68.681c-11.847-20.183-38.16-28.008-58.81-17.417l-55.229,28.326
							c-20.885,10.712-28.056,35.918-15.977,56.238l41.771,70.265c-45.718,32.321-86.588,71.015-121.206,114.888l-75.554-42.747
							c-21.42-12.119-48.909-5.836-61.357,14.101l-33.215,53.197c-12.531,20.071-5.092,46.116,16.575,58.107l78.18,43.263
							c-21.677,49.923-36.32,103.438-42.691,159.393l-93.778,0.161c-25.238,0.043-45.766,19.173-45.766,42.727v62.639
							c0,23.554,20.528,42.393,45.766,42.078l96.269-1.198c8.127,54.646,24.18,106.668,46.992,154.965l-84.971,48.226
							c-21.667,12.297-29.106,38.447-16.575,58.341l33.215,52.728c12.448,19.761,39.937,25.654,61.357,13.231l85.943-49.841
							c34.339,40.615,74.277,76.301,118.595,106.003l-49.549,84.051c-12.079,20.49-4.908,45.595,15.977,56.011l55.229,27.544
							c20.65,10.298,46.963,2.1,58.81-18.25l49.14-84.413c48.523,17.115,99.875,27.976,153.03,31.726v94.102
							c0,22.412,18.586,39.468,41.441,38.102l60.394-3.611c22.565-1.349,40.801-20.41,40.801-42.578v-93.08
							c51.591-8.818,100.654-24.253,146.33-45.245l45.592,76.694c10.893,18.324,34.952,23.482,53.705,11.582l49.603-31.479
							c18.552-11.773,24.896-36.038,14.202-54.256l-44.259-75.401c39.617-31.352,74.885-67.622,104.889-107.736l73.817,40.85
							c18.121,10.028,41.215,2.832,51.614-16.017l27.573-49.975c10.336-18.735,4.205-42.102-13.728-52.248l-71.383-40.386
							c19.332-45.351,32.862-93.63,39.688-143.918l79.692-0.991c20.542-0.256,37.146-17.61,37.146-38.763v-56.254
							C2777.879,1486.06,2761.276,1468.941,2740.734,1468.976z M2112.471,1932.064c-229.628,8.521-421.793-169.695-421.793-398.332
							c0-228.637,192.164-409.308,421.793-403.723c221.825,5.396,396.193,183.735,396.193,398.495
							C2508.664,1743.265,2334.296,1923.832,2112.471,1932.064z"/>
						<polygon style="fill:#97A6B7;" points="1855.526,913.114 1800.255,911.208 1781.196,960.762 						"/>
						<polygon style="fill:#97A6B7;" points="2403.591,935.985 2467.326,936.621 2467.326,983.633 						"/>
						<polygon style="fill:#97A6B7;" points="2646.482,1162.764 2710.012,1165.33 2694.13,1200.907 						"/>
						<polygon style="fill:#97A6B7;" points="2746.225,1469.641 2810.39,1474.724 2789.426,1505.854 						"/>
						<polygon style="fill:#97A6B7;" points="2639.493,1909.908 2701.753,1918.802 2709.377,1867.978 						"/>
						<polygon style="fill:#97A6B7;" points="2401.254,2139.253 2457.161,2149.418 2461.608,2108.124 						"/>
						<polygon style="fill:#97A6B7;" points="2121.72,2238.361 2071.53,2229.467 2114.731,2165.301 						"/>
						<polygon style="fill:#97A6B7;" points="1849.809,2184.36 1791.361,2172.289 1836.467,2117.653 						"/>
						<polygon style="fill:#97A6B7;" points="1521.356,1137.377 1582.345,1139.283 1558.204,1183.754 						"/>
						<polygon style="fill:#97A6B7;" points="1400.013,1615.762 1455.919,1624.021 1451.473,1578.279 						"/>
						<polygon style="fill:#97A6B7;" points="1520.085,1950.568 1574.722,1959.462 1579.169,1923.25 						"/>
					</g>
					<path style="fill:#D8DEE8;" d="M2803.432,1474.015l-78.246,0.135c-5.39-51.679-17.816-101.287-36.306-147.893l66.158-38.361
						c18.081-10.484,24.263-34.13,13.841-52.87l-27.801-49.988c-10.486-18.854-33.771-25.778-52.042-15.41l-65.335,37.076
						c-30.408-42.606-66.7-81.02-107.805-114.06l37.578-64.542c10.783-18.519,4.386-42.891-14.32-54.495l-50.014-31.027
						c-18.908-11.729-43.167-6.185-54.15,12.443l-37.664,63.883c-48.395-22.539-100.69-38.798-155.849-47.519v-75.756
						c0-22.349-18.387-41.305-41.139-42.343l-60.894-2.778c-23.044-1.051-41.785,16.41-41.785,39.004v76.588
						c-56.859,4.737-111.671,17.516-163.198,37.291l-40.648-69.24c-11.945-20.347-38.476-28.236-59.297-17.559l-55.687,28.556
						c-21.059,10.799-28.289,36.211-16.109,56.696l42.117,70.838c-46.097,32.585-87.306,71.593-122.211,115.824l-76.18-43.094
						c-21.598-12.218-49.314-5.884-61.866,14.216l-33.49,53.631c-12.635,20.234-5.134,46.492,16.713,58.58l78.827,43.616
						c-21.857,50.33-36.621,104.281-43.045,160.692l-94.555,0.163c-25.448,0.044-46.146,19.329-46.146,43.075v63.15
						c0,23.745,20.698,42.738,46.146,42.421l97.066-1.208c8.195,55.091,24.381,107.537,47.382,156.228l-85.676,48.619
						c-21.846,12.397-29.348,38.76-16.713,58.816l33.49,53.158c12.551,19.922,40.268,25.863,61.866,13.339l86.656-50.247
						c34.624,40.946,74.892,76.922,119.578,106.866l-49.959,84.736c-12.179,20.657-4.949,45.967,16.109,56.468l55.687,27.768
						c20.822,10.382,47.352,2.117,59.297-18.399l49.547-85.1c48.926,17.254,100.703,28.204,154.299,31.984v94.869
						c0,22.594,18.74,39.79,41.785,38.412l60.894-3.64c22.753-1.36,41.139-20.577,41.139-42.925v-93.838
						c52.019-8.89,101.489-24.45,147.542-45.614l45.97,77.319c10.983,18.473,35.242,23.674,54.15,11.677l50.014-31.735
						c18.706-11.869,25.102-36.332,14.32-54.698l-44.626-76.015c39.945-31.607,75.506-68.172,105.758-108.614l74.43,41.182
						c18.271,10.109,41.556,2.855,52.042-16.147l27.801-50.382c10.422-18.887,4.24-42.445-13.841-52.673l-71.975-40.715
						c19.492-45.721,33.134-94.392,40.017-145.09l80.352-1c20.713-0.258,37.454-17.753,37.454-39.079v-56.713
						C2840.885,1491.239,2824.144,1473.98,2803.432,1474.015z M2169.961,1940.875c-231.532,8.59-425.289-171.077-425.289-401.577
						c0-230.499,193.757-412.643,425.289-407.012c223.664,5.44,399.477,185.232,399.477,401.742
						C2569.438,1750.538,2393.625,1932.577,2169.961,1940.875z"/>
				</g>
			</g>
			<g>
				<g>
					<g>
						<path style="fill:#97A6B7;" d="M2995.359,2541.696l-41.748-7.763c2.301-28.108,0.641-55.815-4.553-82.529l39.129-13.839
							c10.694-3.782,16.359-15.777,12.677-26.817l-9.822-29.449c-3.705-11.108-15.431-17.133-26.214-13.432l-38.561,13.236
							c-11.952-25.773-27.462-49.899-46.077-71.64l26.507-30.667c7.606-8.8,6.635-22.441-2.18-30.505l-23.569-21.559
							c-8.91-8.15-22.404-7.622-30.128,1.216l-26.487,30.307c-23.555-16.869-49.82-30.779-78.366-40.955l7.587-40.412
							c2.238-11.922-5.671-23.875-17.702-26.708l-32.201-7.579c-12.186-2.868-23.93,4.57-26.193,16.623l-7.67,40.856
							c-30.802-3.167-61.316-1.838-90.78,3.551l-14.746-41.006c-4.333-12.05-17.694-18.915-29.869-15.305l-32.562,9.657
							c-12.313,3.652-18.715,16.484-14.271,28.632l15.37,42.006c-27.85,12.767-53.737,29.449-76.784,49.549l-36.317-30.617
							c-10.296-8.681-25.714-8.077-34.421,1.388l-23.234,25.256c-8.765,9.529-7.394,24.287,3.048,32.923l37.677,31.16
							c-16.698,24.66-29.977,51.961-39.052,81.411l-50.449-9.382c-13.578-2.525-26.549,5.69-28.927,18.358l-6.324,33.688
							c-2.378,12.667,6.76,24.871,20.365,27.25l51.894,9.076c-1.146,30.208,2.234,59.807,9.626,88.084l-50.566,17.356
							c-12.894,4.426-19.535,17.738-14.804,29.702l12.539,31.71c4.699,11.884,18.887,17.829,31.662,13.311l51.252-18.127
							c14.366,25.31,32.242,48.534,53.077,68.982l-35.133,40.199c-8.565,9.8-7.243,24.025,2.937,31.736l26.921,20.389
							c10.066,7.623,25.044,5.871,33.47-3.877l34.95-40.435c24.368,14.103,50.888,25.129,79.096,32.512l-9.501,50.608
							c-2.263,12.052,6.011,23.102,18.44,24.675l32.844,4.156c12.272,1.553,24.003-6.857,26.241-18.779l9.398-50.058
							c28.636,0.466,56.58-2.881,83.263-9.559l16.776,45.849c4.008,10.954,16.427,16.157,27.713,11.651l29.854-11.921
							c11.166-4.458,17.028-16.867,13.116-27.745l-16.189-45.019c24.471-12.861,47.1-28.806,67.286-47.35l35.574,29.422
							c8.732,7.222,21.879,5.684,29.375-3.402l19.874-24.093c7.45-9.032,6.512-22.217-2.107-29.484l-34.312-28.926
							c14.976-22.438,27.126-47.036,35.875-73.391l42.958,7.512c11.073,1.937,21.754-5.72,23.89-17.096l5.68-30.253
							C3013.611,2554.635,3006.41,2543.751,2995.359,2541.696z M2610.727,2727.31c-124.354-18.602-209.705-133.847-186.621-256.807
							c23.084-122.96,144.671-200.723,267.6-174.534c118.751,25.299,194.52,138.813,172.837,254.31
							C2842.86,2665.776,2730.855,2745.28,2610.727,2727.31z"/>
						<polygon style="fill:#97A6B7;" points="2575.421,2153.382 2545.889,2146.777 2530.636,2171.502 						"/>
						<polygon style="fill:#97A6B7;" points="2867.859,2221.017 2902.071,2227.794 2897.324,2253.077 						"/>
						<polygon style="fill:#97A6B7;" points="2975.588,2367.501 3009.495,2375.295 2997.361,2392.825 						"/>
						<polygon style="fill:#97A6B7;" points="2998.245,2542.608 3032.24,2551.82 3017.822,2566.445 						"/>
						<polygon style="fill:#97A6B7;" points="2896.394,2768.605 2928.979,2779.675 2938.211,2753.112 						"/>
						<polygon style="fill:#97A6B7;" points="2745.115,2867.893 2774.155,2879.004 2780.716,2857.245 						"/>
						<polygon style="fill:#97A6B7;" points="2584.776,2892.969 2558.682,2883.119 2588.394,2852.972 						"/>
						<polygon style="fill:#97A6B7;" points="2443.996,2836.475 2413.782,2824.082 2443.556,2799.253 						"/>
						<polygon style="fill:#97A6B7;" points="2373.063,2240.25 2405.671,2247.433 2388.198,2268.912 						"/>
						<polygon style="fill:#97A6B7;" points="2259.506,2485.272 2288.739,2495.358 2290.965,2470.309 						"/>
						<polygon style="fill:#97A6B7;" points="2290.277,2677.452 2318.762,2687.751 2324.81,2668.726 						"/>
					</g>
					<path style="fill:#D8DEE8;" d="M3028.569,2550.737l-42.094-7.828c2.319-28.337,0.645-56.27-4.593-83.201l39.453-13.951
						c10.782-3.813,16.494-15.905,12.781-27.035l-9.904-29.69c-3.735-11.198-15.559-17.273-26.432-13.542l-38.88,13.343
						c-12.052-25.983-27.691-50.306-46.461-72.225l26.726-30.917c7.669-8.871,6.689-22.624-2.199-30.753l-23.765-21.736
						c-8.984-8.217-22.59-7.685-30.378,1.225l-26.705,30.553c-23.75-17.007-50.233-31.031-79.017-41.291l7.649-40.741
						c2.256-12.019-5.718-24.07-17.85-26.925l-32.468-7.642c-12.287-2.892-24.128,4.606-26.409,16.758l-7.733,41.189
						c-31.057-3.193-61.824-1.854-91.532,3.578l-14.869-41.341c-4.37-12.148-17.841-19.07-30.117-15.43l-32.832,9.735
						c-12.415,3.682-18.869,16.618-14.388,28.865l15.498,42.348c-28.081,12.87-54.181,29.688-77.418,49.951l-36.618-30.868
						c-10.382-8.751-25.927-8.143-34.706,1.399l-23.426,25.461c-8.838,9.606-7.455,24.485,3.073,33.191l37.99,31.415
						c-16.836,24.86-30.223,52.384-39.373,82.073l-50.868-9.459c-13.69-2.546-26.769,5.736-29.166,18.507l-6.376,33.961
						c-2.398,12.771,6.816,25.074,20.534,27.473l52.324,9.151c-1.155,30.455,2.254,60.295,9.708,88.803l-50.984,17.497
						c-13.001,4.461-19.697,17.882-14.926,29.944l12.644,31.969c4.739,11.981,19.045,17.975,31.924,13.42l51.676-18.273
						c14.486,25.516,32.51,48.93,53.519,69.545l-35.423,40.526c-8.636,9.88-7.302,24.221,2.962,31.995l27.145,20.556
						c10.149,7.686,25.252,5.92,33.747-3.908l35.238-40.764c24.57,14.219,51.31,25.335,79.752,32.78l-9.578,51.02
						c-2.281,12.151,6.061,23.291,18.594,24.876l33.116,4.19c12.374,1.566,24.202-6.912,26.458-18.931l9.474-50.466
						c28.873,0.471,57.049-2.903,83.953-9.635l16.916,46.223c4.042,11.043,16.563,16.29,27.943,11.747l30.102-12.017
						c11.258-4.495,17.168-17.005,13.224-27.971l-16.324-45.386c24.673-12.965,47.489-29.039,67.842-47.734l35.87,29.663
						c8.805,7.281,22.06,5.731,29.618-3.43l20.038-24.288c7.512-9.105,6.565-22.399-2.126-29.725l-34.597-29.163
						c15.099-22.621,27.349-47.418,36.17-73.989l43.314,7.575c11.165,1.953,21.935-5.766,24.088-17.235l5.726-30.5
						C3046.972,2563.781,3039.712,2552.809,3028.569,2550.737z M2640.756,2737.854c-125.384-18.757-211.445-134.944-188.173-258.905
						c23.272-123.961,145.864-202.355,269.812-175.95c119.736,25.508,196.135,139.95,174.275,256.388
						S2761.879,2755.973,2640.756,2737.854z"/>
				</g>
			</g>
		</g>
		<g>
			<g>
				<g>
					<g>
						<g>
							<defs>
								<path id="SVGID_1_" d="M1075.008,2763.32c-22.607,37.474-61.999,88.353-104.648,147.355l711.812,103.064
									c-79.622-216.762-191.87-444.406-24.227-820.793c78.672-176.632,287.766-487.174,201.702-694.268
									c-98.05-235.939-292.034-134.059-341.253-316.724c-76.929-285.502-319.955-484.112-581.037-342.224
									c-257.677,140.039-249.027,651.704,90.501,1211.447C1225.952,2480.333,1193.056,2567.642,1075.008,2763.32z"/>
							</defs>
							
								<linearGradient id="SVGID_00000065755322785555095370000016687580312066483389_" gradientUnits="userSpaceOnUse" x1="1594.4187" y1="1560.7461" x2="171.2415" y2="3306.1504">
								<stop  offset="0" style="stop-color:#AA80F9"/>
								<stop  offset="0.1989" style="stop-color:#9B7BF2"/>
								<stop  offset="0.9964" style="stop-color:#6165D7"/>
							</linearGradient>
							
								<use xlink:href="#SVGID_1_"  style="overflow:visible;fill:url(#SVGID_00000065755322785555095370000016687580312066483389_);"/>
							<clipPath id="SVGID_00000036968840079399252000000006540847057752751258_">
								<use xlink:href="#SVGID_1_"  style="overflow:visible;"/>
							</clipPath>
							<g style="clip-path:url(#SVGID_00000036968840079399252000000006540847057752751258_);">
								<g>
									<path style="fill:#FCFDFE;" d="M1344.33,2922.716c5.14-93.483,5.249-181.914,5.363-275.541l0.044-31.216
										c-2.723-45.086-4.183-89.615-5.595-132.679c-3.189-97.237-6.201-189.085-22.66-286.591
										c-0.318-5.696-0.348-11.227-0.377-17.086c-0.108-20.921-0.222-42.553-12.365-63.236l-0.279-0.859
										c-48.921-515.712-205.042-1029.97-464.027-1528.483l3.703-1.922c259.154,498.839,415.414,1013.462,464.436,1529.554
										c12.48,21.536,12.598,44.579,12.702,64.925c0.031,5.806,0.058,11.29,0.348,16.648
										c16.477,97.548,19.493,189.531,22.688,286.914c1.411,43.034,2.871,87.534,5.596,132.694l-0.043,31.343
										c-0.113,93.682-0.223,182.169-5.369,275.765L1344.33,2922.716z"/>
									<path style="fill:#FCFDFE;" d="M1339.535,2465.409c-4.572-243.891,124.067-533.6,232.785-733.693
										c117.737-216.689,238.119-377.87,239.321-379.472l3.338,2.502c-1.201,1.602-121.429,162.581-239.023,379.013
										c-108.467,199.635-236.805,488.606-232.251,731.572L1339.535,2465.409z"/>
									<path style="fill:#FCFDFE;" d="M1175.727,1405.454c-19.274-258.534,20.371-534.323,33.399-624.95
										c2.49-17.334,4.136-28.787,4.063-31.012l4.17-0.14c0.084,2.49-1.198,11.531-4.104,31.748
										c-13.012,90.515-52.607,365.964-33.367,624.044L1175.727,1405.454z"/>
									<path style="fill:#FCFDFE;" d="M1268.723,1818.864c-87.245-222.734-543.352-420.218-547.949-422.188l1.642-3.834
										c4.613,1.974,462.316,200.161,550.19,424.502L1268.723,1818.864z"/>
								</g>
							</g>
						</g>
					</g>
					<g>
						<g>
							<defs>
								<path id="SVGID_00000047035649007451956820000010447761505096509829_" d="M1079.71,1976.563
									c3.874,330.435,163.25,221.555,310.212,254.166c169.61,245.404,185.588,473.087-67.65,669.716l-282.171-42.227
									c-104.697-4.859-227.548-36.858-220.616-176.268c7.84-157.672,45.127-257.814-132.839-335.246
									c-177.964-77.432-254.414-218.722-182.347-379.433c75.839-169.122-102.046-397.092,27.956-510.407
									C758.775,1259.418,1075.675,1632.481,1079.71,1976.563z"/>
							</defs>
							
								<linearGradient id="SVGID_00000079449591444627765870000001521403246316869766_" gradientUnits="userSpaceOnUse" x1="612.5726" y1="1673.5349" x2="1683.0476" y2="3435.8125">
								<stop  offset="0.0036" style="stop-color:#E38DDD"/>
								<stop  offset="1" style="stop-color:#9571F6"/>
							</linearGradient>
							
								<use xlink:href="#SVGID_00000047035649007451956820000010447761505096509829_"  style="overflow:visible;fill:url(#SVGID_00000079449591444627765870000001521403246316869766_);"/>
							<clipPath id="SVGID_00000102506729532708776650000011471721880061189250_">
								<use xlink:href="#SVGID_00000047035649007451956820000010447761505096509829_"  style="overflow:visible;"/>
							</clipPath>
							<g style="clip-path:url(#SVGID_00000102506729532708776650000011471721880061189250_);">
								<g>
									<path style="fill:#FCFDFE;" d="M1149.764,2567.9c-117.808-128.884-219.878-272.104-303.376-425.684
										C762.173,1987.31,697.98,1823.923,655.6,1656.589c-24.302-95.951-41.458-193.71-50.989-290.559l4.246-0.416
										c9.514,96.634,26.631,194.18,50.881,289.928c42.292,166.987,106.352,330.041,190.401,484.634
										c83.332,153.277,185.201,296.216,302.775,424.843L1149.764,2567.9z"/>
									<path style="fill:#FCFDFE;" d="M846.056,2749.388l-1.937-3.805c52.408-26.697,114.227-47.516,183.745-61.879
										c33.126-6.845,66.032-11.362,97.805-13.426l0.279,4.26c-31.578,2.049-64.288,6.54-97.218,13.348
										C959.582,2702.17,898.124,2722.863,846.056,2749.388z"/>
									<path style="fill:#FCFDFE;" d="M901.318,2236.497c-145.708-140.948-455.873-128.067-458.982-127.9l-0.2-4.265
										c3.143-0.137,315.113-13.141,462.151,129.099L901.318,2236.497z"/>
									<path style="fill:#FCFDFE;" d="M721.648,1868.644c-43.613-224.86,124.913-484.709,126.619-487.306l3.566,2.343
										c-1.698,2.585-169.274,261.01-125.994,484.151L721.648,1868.644z"/>
								</g>
							</g>
						</g>
					</g>
				</g>
			</g>
		</g>
		<g>
			
				<linearGradient id="SVGID_00000147912131386165822270000012245400136966497214_" gradientUnits="userSpaceOnUse" x1="1720.0396" y1="3109.0957" x2="1542.8446" y2="3183.5176">
				<stop  offset="0" style="stop-color:#40447E"/>
				<stop  offset="0.9964" style="stop-color:#3C3B6B"/>
			</linearGradient>
			<path style="fill:url(#SVGID_00000147912131386165822270000012245400136966497214_);" d="M3176.924,3011.948l-2522.201-22.169
				v65.593c0,17.803,11.001,32.942,25.9,35.64l713.203,129.165c8.464,1.533,17.048,1.94,25.589,1.213l1730.101-147.27
				c15.446-1.314,27.408-16.5,27.408-34.791V3011.948z"/>
			<g>
				
					<linearGradient id="SVGID_00000181078922140604750790000011522554421980255123_" gradientUnits="userSpaceOnUse" x1="1431.7328" y1="2321.3589" x2="1248.0109" y2="2398.522">
					<stop  offset="0" style="stop-color:#40447E"/>
					<stop  offset="0.9964" style="stop-color:#3C3B6B"/>
				</linearGradient>
				<path style="fill:url(#SVGID_00000181078922140604750790000011522554421980255123_);" d="M2261.627,2905.618L680.805,3025.613
					c-28.288,2.147-51.288-20.669-51.288-50.967V1760.787c0-30.298,23-54.86,51.288-54.86h1580.822
					c23.305,0,42.147,22.203,42.147,49.592v1097.307C2303.775,2880.214,2284.932,2903.848,2261.627,2905.618z"/>
				
					<linearGradient id="SVGID_00000152265858544277840710000016950347033480293815_" gradientUnits="userSpaceOnUse" x1="654.7231" y1="2365.8398" x2="2328.9812" y2="2365.8398">
					<stop  offset="0" style="stop-color:#40447E"/>
					<stop  offset="0.9964" style="stop-color:#3C3B6B"/>
				</linearGradient>
				<path style="fill:url(#SVGID_00000152265858544277840710000016950347033480293815_);" d="M2286.833,2905.618L706.011,3025.613
					c-28.288,2.147-51.288-20.669-51.288-50.967V1760.787c0-30.298,23-54.86,51.288-54.86h1580.822
					c23.305,0,42.148,22.203,42.148,49.592v1097.307C2328.981,2880.214,2310.139,2903.848,2286.833,2905.618z"/>
				<path style="fill:#D8DEE8;" d="M2237.586,2828.255l-1472.37,104.232c-23.02,1.63-41.727-17.097-41.727-41.831V1827.92
					c0-24.734,18.707-44.869,41.727-44.972l1472.37-6.545c19.225-0.086,34.776,18.108,34.776,40.637v967.962
					C2272.362,2807.531,2256.811,2826.895,2237.586,2828.255z"/>
				<path style="fill:#FFFFFF;" d="M1552.252,1739.129c0,11.279-8.136,20.449-18.184,20.482
					c-10.06,0.033-18.224-9.104-18.224-20.409s8.164-20.474,18.224-20.482C1544.116,1718.711,1552.252,1727.849,1552.252,1739.129z"
					/>
				<path style="opacity:0.48;fill:#FFFFFF;" d="M1905.959,2572.698c-121.868-70.43-217.691,18.813-310.168-69.239
					c-56.066-53.383-28.54-93.191-97.527-172.967c-76.409-88.357-126.155-58.656-202.944-138.178
					c-97.095-100.551-48.533-178.782-132.169-250.974c-101.461-87.58-210.882-6.519-307.466-90.511
					c-41.658-36.226-64.514-88.892-76.45-144.902h-94.503c-16.56,0-30.009,14.416-30.009,32.201v1258.271
					c0,17.784,13.448,31.176,30.009,29.914l1611.117-122.837c7.906-0.603,14.917-5.561,19.417-12.75
					c-117.938-4.617-190.394-47.084-236.709-90.985C1987.95,2713.857,2003.666,2629.164,1905.959,2572.698z"/>
			</g>
			
				<linearGradient id="SVGID_00000066473412146937751310000005848527620229708725_" gradientUnits="userSpaceOnUse" x1="654.7231" y1="3030.8621" x2="3176.9238" y2="3030.8621">
				<stop  offset="0" style="stop-color:#40447E"/>
				<stop  offset="0.9964" style="stop-color:#3C3B6B"/>
			</linearGradient>
			<path style="fill:url(#SVGID_00000066473412146937751310000005848527620229708725_);" d="M2349.841,2900.176L654.723,3026.482
				l739.103,133.855c8.464,1.533,17.048,1.94,25.589,1.213l1757.51-149.602l-800.119-110.914
				C2367.857,2899.793,2358.833,2899.506,2349.841,2900.176z"/>
			
				<linearGradient id="SVGID_00000145053915594787956660000007235900970101051527_" gradientUnits="userSpaceOnUse" x1="902.0673" y1="3010.0066" x2="2750.0681" y2="3010.0066">
				<stop  offset="0" style="stop-color:#40447E"/>
				<stop  offset="0.9964" style="stop-color:#3C3B6B"/>
			</linearGradient>
			<polygon style="opacity:0.3;fill:url(#SVGID_00000145053915594787956660000007235900970101051527_);" points="902.067,3029.658 
				2313.303,2922.938 2750.068,2982.995 1350.989,3097.075 			"/>
			<g style="opacity:0.75;">
				<polygon style="fill:#FFFFFF;" points="1023.888,1866.398 861.755,1866.964 861.755,1814.496 1023.888,1814.496 				"/>
				<polygon style="fill:#FFFFFF;" points="1873.39,1863.432 1126.873,1866.038 1126.873,1814.496 1873.39,1814.496 				"/>
				<polygon style="fill:#FFFFFF;" points="1283.365,1952.603 1126.873,1954.082 1126.873,1902.539 1283.365,1901.606 				"/>
				<polygon style="fill:#FFFFFF;" points="2104.29,1944.84 1382.798,1951.663 1382.798,1901.013 2104.29,1896.71 				"/>
				<polygon style="fill:#FFFFFF;" points="1283.365,2039.713 1126.873,2042.126 1126.873,1990.583 1283.365,1988.716 				"/>
				<polygon style="fill:#FFFFFF;" points="2104.29,2027.055 1382.798,2038.18 1382.798,1987.53 2104.29,1978.925 				"/>
				<polygon style="fill:#FFFFFF;" points="1023.888,2132.372 861.755,2135.839 861.755,2083.37 1023.888,2080.469 				"/>
				<polygon style="fill:#FFFFFF;" points="1873.39,2114.207 1126.873,2130.17 1126.873,2078.627 1873.39,2065.271 				"/>
				<polygon style="fill:#FFFFFF;" points="1283.365,2213.934 1126.873,2218.213 1126.873,2166.671 1283.365,2162.938 				"/>
				<polygon style="fill:#FFFFFF;" points="2104.29,2191.484 1382.798,2211.215 1382.798,2160.565 2104.29,2143.354 				"/>
				<polygon style="fill:#FFFFFF;" points="1283.365,2301.044 1126.873,2306.257 1126.873,2254.714 1283.365,2250.048 				"/>
				<polygon style="fill:#FFFFFF;" points="2104.29,2273.699 1382.798,2297.732 1382.798,2247.083 2104.29,2225.568 				"/>
				<polygon style="fill:#FFFFFF;" points="1283.365,2388.155 1126.873,2394.301 1126.873,2342.758 1283.365,2337.158 				"/>
				<polygon style="fill:#FFFFFF;" points="2104.29,2355.914 1382.798,2384.25 1382.798,2333.6 2104.29,2307.783 				"/>
				<polygon style="fill:#FFFFFF;" points="1536.282,2463.824 1385.191,2470.659 1385.191,2420.018 1536.282,2413.71 				"/>
				<polygon style="fill:#FFFFFF;" points="2214.463,2433.145 1632.313,2459.48 1632.313,2409.701 2214.463,2385.398 				"/>
				<polygon style="fill:#FFFFFF;" points="1023.888,2575.661 861.755,2583.963 861.755,2531.494 1023.888,2523.759 				"/>
				<polygon style="fill:#FFFFFF;" points="1873.39,2532.165 1126.873,2570.388 1126.873,2518.846 1873.39,2483.229 				"/>
				<polygon style="fill:#FFFFFF;" points="1283.365,2649.486 1126.873,2658.432 1126.873,2606.889 1283.365,2598.489 				"/>
				<polygon style="fill:#FFFFFF;" points="2104.29,2602.558 1382.798,2643.802 1382.798,2593.152 2104.29,2554.427 				"/>
				<polygon style="fill:#FFFFFF;" points="1283.365,2736.597 1126.873,2746.476 1126.873,2694.933 1283.365,2685.6 				"/>
				<polygon style="fill:#FFFFFF;" points="2104.29,2684.772 1382.798,2730.32 1382.798,2679.67 2104.29,2636.642 				"/>
				<polygon style="fill:#FFFFFF;" points="1023.888,2841.635 861.755,2852.837 861.755,2800.369 1023.888,2789.733 				"/>
				<polygon style="fill:#FFFFFF;" points="1873.39,2782.94 1126.873,2834.52 1126.873,2782.977 1873.39,2734.004 				"/>
			</g>
		</g>
		<g>
			
				<linearGradient id="SVGID_00000125581377418237672420000003413578910428808105_" gradientUnits="userSpaceOnUse" x1="3299.9912" y1="487.0781" x2="3013.8953" y2="762.0635">
				<stop  offset="0" style="stop-color:#311944"/>
				<stop  offset="1" style="stop-color:#A03976"/>
			</linearGradient>
			<path style="fill:url(#SVGID_00000125581377418237672420000003413578910428808105_);" d="M2729.141,1772.887
				c-25.238,0.73-49.855-5.63-71.177-18.409c-64.964-38.943-160.956-103.255-247.317-187.44
				c-109.584-106.827-172.546-215.415-186.323-322.047l-0.216-1.671l-2.673-454.989c0-89.92,58.65-162.911,168.763-210.873
				c90.976-39.625,211.556-59.26,338.942-55.573c125.903,3.644,242.405,29.622,328.636,72.907
				c102.503,51.456,156.286,123.767,156.286,209.499l-2.438,434.746l-0.197,1.598c-12.589,102.11-70.519,207.655-172.908,314.387
				c-82.126,85.605-174.929,153.446-238.665,195.48C2778.769,1764.411,2754.322,1772.159,2729.141,1772.887z"/>
			
				<linearGradient id="SVGID_00000030489022077980463250000002162293627798022042_" gradientUnits="userSpaceOnUse" x1="2519.738" y1="1392.2302" x2="2030.9541" y2="2206.8687">
				<stop  offset="0" style="stop-color:#FF9085"/>
				<stop  offset="1" style="stop-color:#FB6FBB"/>
			</linearGradient>
			<path style="fill:url(#SVGID_00000030489022077980463250000002162293627798022042_);" d="M2754.127,1772.887
				c-24.904,0.73-49.196-5.63-70.238-18.409c-64.106-38.943-158.829-103.255-244.049-187.44
				c-108.135-106.827-170.266-215.415-183.859-322.047l-0.214-1.671l-2.638-454.989c0-89.92,57.875-162.911,166.533-210.873
				c89.775-39.625,208.761-59.26,334.465-55.573c124.24,3.644,239.202,29.622,324.292,72.907
				c101.151,51.456,154.222,123.767,154.222,209.499l-2.407,434.746l-0.195,1.598c-12.422,102.11-69.587,207.655-170.624,314.387
				c-81.041,85.605-172.618,153.446-235.511,195.48C2803.099,1764.411,2778.974,1772.159,2754.127,1772.887z"/>
			
				<linearGradient id="SVGID_00000085955101153799290520000001404715909040806590_" gradientUnits="userSpaceOnUse" x1="2965.3521" y1="1455.3627" x2="2175.5339" y2="-132.799">
				<stop  offset="0" style="stop-color:#FF9085"/>
				<stop  offset="1" style="stop-color:#FB6FBB"/>
			</linearGradient>
			<path style="fill:url(#SVGID_00000085955101153799290520000001404715909040806590_);" d="M2283.171,788.659l2.656,452.691
				c29.799,230.975,301.246,417.979,419.47,489.028c33.867,20.352,77.167,19.146,110.796-2.982
				c115.756-76.17,372.336-267.93,399.751-490.003l2.435-433.548C3218.279,482.19,2283.171,452.784,2283.171,788.659z"/>
			
				<linearGradient id="SVGID_00000115473775968812659430000014976269442448159641_" gradientUnits="userSpaceOnUse" x1="2372.8044" y1="1147.262" x2="3135.4155" y2="1147.262">
				<stop  offset="0" style="stop-color:#311944"/>
				<stop  offset="1" style="stop-color:#893976"/>
			</linearGradient>
			<path style="fill:url(#SVGID_00000115473775968812659430000014976269442448159641_);" d="M2760.836,1660.6
				c-2.167,0.05-5.447-0.31-8.76-2.319c-48.678-29.478-143.04-91.222-225.132-171.857c-88.67-87.1-139.81-171.783-151.538-251.317
				l-2.602-445.195c0.108-42.716,33.922-79.275,100.204-108.527c73.994-32.657,179.075-49.793,287.828-47.21
				c107.668,2.556,209.682,24.23,280.357,59.3c62.515,31.02,94.121,67.59,94.222,108.829l-2.424,429.781
				c-10.945,76.964-58.944,159.936-143.218,247.155c-79.24,82.008-171.803,147.017-220.184,178.63
				C2766.279,1660.031,2763.002,1660.548,2760.836,1660.6z"/>
			
				<linearGradient id="SVGID_00000155123577374883025030000007981652213445326214_" gradientUnits="userSpaceOnUse" x1="2963.8252" y1="681.1276" x2="2404.4937" y2="1552.7239">
				<stop  offset="0" style="stop-color:#FCB148"/>
				<stop  offset="0.0521" style="stop-color:#FDBA46"/>
				<stop  offset="0.1424" style="stop-color:#FFC244"/>
				<stop  offset="0.3183" style="stop-color:#FFC444"/>
				<stop  offset="0.4849" style="stop-color:#FDB946"/>
				<stop  offset="0.7754" style="stop-color:#F99C4D"/>
				<stop  offset="0.8658" style="stop-color:#F8924F"/>
				<stop  offset="1" style="stop-color:#F8924F"/>
			</linearGradient>
			<path style="fill:url(#SVGID_00000155123577374883025030000007981652213445326214_);" d="M2749.728,1630.169
				c-49.16-30.278-136.576-88.742-212.845-163.802c-83.33-82.01-131.553-160.706-142.889-233.524l-2.582-442.61
				c0.077-30.541,28.151-58.557,83.229-82.943c70.094-31.037,170.522-47.391,275.085-45.045
				c103.56,2.325,201.173,22.78,268.253,55.969c52.12,25.787,78.488,53.917,78.56,83.705l-2.419,428.201
				c-10.635,70.65-56.121,147.916-135.661,230.085C2884.611,1536.494,2798.664,1597.84,2749.728,1630.169z"/>
			<g>
				
					<linearGradient id="SVGID_00000004546091022851613340000004186355692747778176_" gradientUnits="userSpaceOnUse" x1="2582.3967" y1="1605.1895" x2="2788.2854" y2="1124.7828">
					<stop  offset="0" style="stop-color:#311944"/>
					<stop  offset="1" style="stop-color:#893976"/>
				</linearGradient>
				<path style="fill:url(#SVGID_00000004546091022851613340000004186355692747778176_);" d="M2925.626,1050.673l-331.035,2.945
					c-25.448,0.227-46.181,20.064-46.181,44.297v212.098c0,24.09,20.656,42.762,46.011,41.723l329.867-13.507
					c23.463-0.961,42.491-20.384,42.611-43.4l1.049-202.617C2968.067,1069.068,2949.17,1050.464,2925.626,1050.673z"/>
				
					<linearGradient id="SVGID_00000110434429816984007010000001920649966644774035_" gradientUnits="userSpaceOnUse" x1="3060.3247" y1="743.365" x2="2500.9949" y2="1614.9585">
					<stop  offset="0" style="stop-color:#FCB148"/>
					<stop  offset="0.0521" style="stop-color:#FDBA46"/>
					<stop  offset="0.1424" style="stop-color:#FFC244"/>
					<stop  offset="0.3183" style="stop-color:#FFC444"/>
					<stop  offset="0.4849" style="stop-color:#FDB946"/>
					<stop  offset="0.7754" style="stop-color:#F99C4D"/>
					<stop  offset="0.8658" style="stop-color:#F8924F"/>
					<stop  offset="1" style="stop-color:#F8924F"/>
				</linearGradient>
				<path style="fill:url(#SVGID_00000110434429816984007010000001920649966644774035_);" d="M2805.404,1172.298
					c0.074-23.425-20.031-41.942-44.581-40.39c-21.736,1.372-39.766,18.926-40.985,39.991c-0.946,16.339,7.891,30.495,21.344,37.68
					c5.719,3.055,8.548,9.458,7.419,15.778l-9.567,53.579c-1.218,6.82,4.188,12.821,11.316,12.57l24.217-0.85
					c7.08-0.247,12.466-6.592,11.297-13.295l-9.257-53.071c-1.106-6.337,2.16-12.619,7.9-16.071
					C2796.983,1200.714,2805.356,1187.356,2805.404,1172.298z"/>
				
					<linearGradient id="SVGID_00000106842568149400504950000009122889157828987786_" gradientUnits="userSpaceOnUse" x1="2505.2236" y1="1572.116" x2="2711.1116" y2="1091.7109">
					<stop  offset="0" style="stop-color:#311944"/>
					<stop  offset="1" style="stop-color:#893976"/>
				</linearGradient>
				<path style="fill:url(#SVGID_00000106842568149400504950000009122889157828987786_);" d="M2920.977,1029.636
					c-9.941,0.065-17.981-7.834-17.938-17.644l0.201-46.202c0.202-46.403-38.159-84.577-85.97-85.052l-108.051-1.072
					c-49.481-0.492-90.166,38.092-90.208,85.964l-0.042,47.661c-0.009,10.12-8.625,18.379-19.267,18.449
					c-10.666,0.069-19.326-8.11-19.322-18.273l0.018-47.86c0.027-68.417,58.292-123.355,128.891-122.374l108.098,1.503
					c67.91,0.944,122.157,55.296,121.84,121.074l-0.221,46.018C2938.958,1021.599,2930.896,1029.57,2920.977,1029.636z"/>
			</g>
		</g>
		<g>
			
				<linearGradient id="SVGID_00000057839413460010690280000011701829622695853996_" gradientUnits="userSpaceOnUse" x1="1171.8934" y1="2671.8132" x2="1272.1377" y2="2671.8132">
				<stop  offset="0" style="stop-color:#444B8C"/>
				<stop  offset="0.9964" style="stop-color:#26264F"/>
			</linearGradient>
			<path style="fill:url(#SVGID_00000057839413460010690280000011701829622695853996_);" d="M1223.925,2607.129
				c0,0-68.714,40.09-48.213,87.304c12.328,28.393,42.401,38.348,64.419,41.773c13.844,2.154,26.619-7.866,28.036-21.803
				l3.97-39.042L1223.925,2607.129z"/>
			<g>
				
					<linearGradient id="SVGID_00000020386402565934958280000005686612051543024513_" gradientUnits="userSpaceOnUse" x1="2593.4934" y1="2044.4226" x2="2132.2888" y2="2312.1458">
					<stop  offset="0" style="stop-color:#FCB148"/>
					<stop  offset="0.0521" style="stop-color:#FDBA46"/>
					<stop  offset="0.1424" style="stop-color:#FFC244"/>
					<stop  offset="0.3183" style="stop-color:#FFC444"/>
					<stop  offset="0.4849" style="stop-color:#FDB946"/>
					<stop  offset="0.7754" style="stop-color:#F99C4D"/>
					<stop  offset="0.8658" style="stop-color:#F8924F"/>
					<stop  offset="1" style="stop-color:#F8924F"/>
				</linearGradient>
				<path style="fill:url(#SVGID_00000020386402565934958280000005686612051543024513_);" d="M2048.845,2211.328
					c-4.146,38.496,23.778,149.419,62.273,153.564l317.131-42.195l15.013-139.402l-317.21-34.162
					C2087.558,2144.988,2052.991,2172.833,2048.845,2211.328z"/>
				
					<linearGradient id="SVGID_00000005229914819148215750000009311277760140466844_" gradientUnits="userSpaceOnUse" x1="2597.2952" y1="2074.3906" x2="2162.8525" y2="2326.5789">
					<stop  offset="0" style="stop-color:#FCB148"/>
					<stop  offset="0.0521" style="stop-color:#FDBA46"/>
					<stop  offset="0.1424" style="stop-color:#FFC244"/>
					<stop  offset="0.3183" style="stop-color:#FFC444"/>
					<stop  offset="0.4849" style="stop-color:#FDB946"/>
					<stop  offset="0.7754" style="stop-color:#F99C4D"/>
					<stop  offset="0.8658" style="stop-color:#F8924F"/>
					<stop  offset="1" style="stop-color:#F8924F"/>
				</linearGradient>
				<path style="fill:url(#SVGID_00000005229914819148215750000009311277760140466844_);" d="M2660.073,1946.032
					c-30.092-24.364-74.235-19.72-98.598,10.371l-200.762,247.96l108.969,88.227l200.762-247.959
					C2694.807,2014.54,2690.164,1970.396,2660.073,1946.032z"/>
				
					<linearGradient id="SVGID_00000178171755182828503250000014625584386603678606_" gradientUnits="userSpaceOnUse" x1="-339.4681" y1="1369.6345" x2="-566.6547" y2="1656.6069" gradientTransform="matrix(0.7131 -0.7011 0.7011 0.7131 1678.8242 902.4711)">
					<stop  offset="0" style="stop-color:#444B8C"/>
					<stop  offset="0.9964" style="stop-color:#26264F"/>
				</linearGradient>
				
					<circle style="fill:url(#SVGID_00000178171755182828503250000014625584386603678606_);" cx="2411.354" cy="2250.455" r="101.723"/>
			</g>
			
				<linearGradient id="SVGID_00000088115831367227947840000006067631826179429517_" gradientUnits="userSpaceOnUse" x1="2111.1189" y1="1698.1554" x2="2425.595" y2="1698.1554">
				<stop  offset="0" style="stop-color:#FFC444"/>
				<stop  offset="0.9964" style="stop-color:#F36F56"/>
			</linearGradient>
			
				<ellipse style="fill:url(#SVGID_00000088115831367227947840000006067631826179429517_);" cx="2268.357" cy="1698.155" rx="157.238" ry="220.966"/>
			
				<linearGradient id="SVGID_00000137844120229494064340000005159160684059709830_" gradientUnits="userSpaceOnUse" x1="942.3998" y1="1584.036" x2="2337.2285" y2="1584.036">
				<stop  offset="0" style="stop-color:#FCB148"/>
				<stop  offset="0.0521" style="stop-color:#FDBA46"/>
				<stop  offset="0.1424" style="stop-color:#FFC244"/>
				<stop  offset="0.3183" style="stop-color:#FFC444"/>
				<stop  offset="0.4849" style="stop-color:#FDB946"/>
				<stop  offset="0.7754" style="stop-color:#F99C4D"/>
				<stop  offset="0.8658" style="stop-color:#F8924F"/>
				<stop  offset="1" style="stop-color:#F8924F"/>
			</linearGradient>
			<path style="fill:url(#SVGID_00000137844120229494064340000005159160684059709830_);" d="M1787.784,1162.719h-295.943
				c-303.448,0-549.442,245.994-549.442,549.442v0.005c0,161.922,131.264,293.186,293.187,293.186h808.455
				c161.923,0,293.187-131.265,293.187-293.188v-0.001C2337.229,1408.714,2091.234,1162.719,1787.784,1162.719z"/>
			
				<linearGradient id="SVGID_00000028288846080838193550000009294831876223907233_" gradientUnits="userSpaceOnUse" x1="2136.6567" y1="1803.8629" x2="1225.3871" y2="2827.4514">
				<stop  offset="0" style="stop-color:#FCB148"/>
				<stop  offset="0.0521" style="stop-color:#FDBA46"/>
				<stop  offset="0.1424" style="stop-color:#FFC244"/>
				<stop  offset="0.3183" style="stop-color:#FFC444"/>
				<stop  offset="0.4849" style="stop-color:#FDB946"/>
				<stop  offset="0.7754" style="stop-color:#F99C4D"/>
				<stop  offset="0.8658" style="stop-color:#F8924F"/>
				<stop  offset="1" style="stop-color:#F8924F"/>
			</linearGradient>
			<path style="fill:url(#SVGID_00000028288846080838193550000009294831876223907233_);" d="M1766.028,2772.919h-245.293
				c-251.513,0-455.406-203.893-455.406-455.406v-0.003c0-134.21,108.798-243.009,243.008-243.009h670.089
				c134.21,0,243.009,108.799,243.009,243.009v0.001C2221.436,2569.026,2017.543,2772.919,1766.028,2772.919z"/>
			<g>
				
					<linearGradient id="SVGID_00000173123661794077780100000010607311637763772594_" gradientUnits="userSpaceOnUse" x1="1355.0828" y1="1703.2297" x2="2179.0708" y2="1703.2297">
					<stop  offset="0" style="stop-color:#444B8C"/>
					<stop  offset="0.9964" style="stop-color:#26264F"/>
				</linearGradient>
				<path style="fill:url(#SVGID_00000173123661794077780100000010607311637763772594_);" d="M2056.41,1886.84h-562.546
					c-76.235,0-138.781-58.435-138.781-130.519v-110.535c0-72.084,62.546-128.523,138.781-126.092l562.546,17.946
					c68.085,2.172,122.66,58.214,122.66,125.198v102.716C2179.071,1832.539,2124.495,1886.84,2056.41,1886.84z"/>
				<g>
					<g>
						<path style="fill:#FFFFFF;" d="M1674.103,1695.187c0,48.139-40.98,86.647-91.942,86.003
							c-51.422-0.65-93.447-40.844-93.447-89.771c0-48.928,42.026-87.414,93.447-85.973
							C1633.123,1606.875,1674.103,1647.048,1674.103,1695.187z"/>
						<path style="fill:#FFFFFF;" d="M2054.268,1702.915c0,46.523-38.27,83.755-85.85,83.154
							c-47.993-0.606-87.207-39.413-87.207-86.671c0-47.259,39.214-84.471,87.207-83.126
							C2015.998,1617.604,2054.268,1656.391,2054.268,1702.915z"/>
					</g>
				</g>
			</g>
			<path style="opacity:0.3;fill:#FFFFFF;" d="M1843.96,1928.285c-83.664-98.301-46.486-176.916-155.864-310.128
				c-150.496-183.294-326.062-162.552-366.276-286.869c-11.143-34.448-12.423-81.729,17.466-147.089
				c-229.223,66.118-396.885,277.451-396.885,527.962v0.005c0,161.922,131.263,293.186,293.185,293.186h704.557
				C1897.942,1982.348,1867.102,1955.477,1843.96,1928.285z"/>
			
				<linearGradient id="SVGID_00000086662320196756900700000006372246917254579384_" gradientUnits="userSpaceOnUse" x1="864.2305" y1="1696.6182" x2="1178.7063" y2="1696.6182">
				<stop  offset="0" style="stop-color:#FFC444"/>
				<stop  offset="0.9964" style="stop-color:#F36F56"/>
			</linearGradient>
			
				<ellipse style="fill:url(#SVGID_00000086662320196756900700000006372246917254579384_);" cx="1021.468" cy="1696.618" rx="157.238" ry="220.966"/>
			
				<linearGradient id="SVGID_00000139253119019621963020000017729910114971224962_" gradientUnits="userSpaceOnUse" x1="828.325" y1="1696.6183" x2="965.8408" y2="1696.6183">
				<stop  offset="0" style="stop-color:#FFC444"/>
				<stop  offset="0.9964" style="stop-color:#F36F56"/>
			</linearGradient>
			
				<ellipse style="fill:url(#SVGID_00000139253119019621963020000017729910114971224962_);" cx="897.083" cy="1696.618" rx="68.758" ry="96.625"/>
			
				<linearGradient id="SVGID_00000029756456308233876970000013963241132257479064_" gradientUnits="userSpaceOnUse" x1="1065.3295" y1="2423.71" x2="1835.349" y2="2423.71">
				<stop  offset="0" style="stop-color:#FCB148"/>
				<stop  offset="0.0521" style="stop-color:#FDBA46"/>
				<stop  offset="0.1424" style="stop-color:#FFC244"/>
				<stop  offset="0.3183" style="stop-color:#FFC444"/>
				<stop  offset="0.4849" style="stop-color:#FDB946"/>
				<stop  offset="0.7754" style="stop-color:#F99C4D"/>
				<stop  offset="0.8658" style="stop-color:#F8924F"/>
				<stop  offset="1" style="stop-color:#F8924F"/>
			</linearGradient>
			<path style="opacity:0.4;fill:url(#SVGID_00000029756456308233876970000013963241132257479064_);" d="M1826.437,2522.208
				c-33.652-158.046-405.902-154.233-416.024-257.538c-7.804-79.637,205.919-158.481,232.776-168.389
				c22.969-8.474,45.766-15.645,68.337-21.78h-403.189c-134.209,0-243.008,108.799-243.008,243.009v0.003
				c0,251.514,203.891,455.406,455.405,455.406h245.294c23.568,0,46.717-1.792,69.321-5.244
				c-21.346-26.459-35.264-55.396-38.63-86.982C1789.257,2610.68,1839.477,2583.451,1826.437,2522.208z"/>
			
				<linearGradient id="SVGID_00000103236081970799398150000014440044069760953788_" gradientUnits="userSpaceOnUse" x1="1476.0776" y1="3429.2092" x2="1587.4741" y2="2567.3462">
				<stop  offset="0" style="stop-color:#FCB148"/>
				<stop  offset="0.0521" style="stop-color:#FDBA46"/>
				<stop  offset="0.1424" style="stop-color:#FFC244"/>
				<stop  offset="0.3183" style="stop-color:#FFC444"/>
				<stop  offset="0.3975" style="stop-color:#FEC045"/>
				<stop  offset="0.7095" style="stop-color:#FAA34B"/>
				<stop  offset="0.8658" style="stop-color:#F8924F"/>
				<stop  offset="1" style="stop-color:#F8924F"/>
			</linearGradient>
			
				<ellipse style="fill:url(#SVGID_00000103236081970799398150000014440044069760953788_);" cx="1649.426" cy="2088.032" rx="387.398" ry="46.904"/>
			
				<linearGradient id="SVGID_00000133510755154545136450000010587041142422167976_" gradientUnits="userSpaceOnUse" x1="1673.151" y1="2330.053" x2="2006.5681" y2="2330.053" gradientTransform="matrix(0.9798 0.2002 -0.2002 0.9798 -287.0954 -338.9757)">
				<stop  offset="0" style="stop-color:#FCB148"/>
				<stop  offset="0.0521" style="stop-color:#FDBA46"/>
				<stop  offset="0.1424" style="stop-color:#FFC244"/>
				<stop  offset="0.3183" style="stop-color:#FFC444"/>
				<stop  offset="0.4849" style="stop-color:#FDB946"/>
				<stop  offset="0.7754" style="stop-color:#F99C4D"/>
				<stop  offset="0.8658" style="stop-color:#F8924F"/>
				<stop  offset="1" style="stop-color:#F8924F"/>
			</linearGradient>
			<path style="fill:url(#SVGID_00000133510755154545136450000010587041142422167976_);" d="M875.455,2329.513l239.879-146.18
				c33.775-20.582,77.691-11.802,100.956,20.183v0c26.482,36.407,15.668,87.727-23.253,110.352l-243.335,141.453L875.455,2329.513z"
				/>
			
				<linearGradient id="SVGID_00000100374155579996002610000004867164289682096575_" gradientUnits="userSpaceOnUse" x1="4150.0068" y1="1642.5493" x2="4330.019" y2="1642.5493" gradientTransform="matrix(0.7098 0.7044 -0.7044 0.7098 -612.7299 -1564.5017)">
				<stop  offset="0" style="stop-color:#444B8C"/>
				<stop  offset="0.9964" style="stop-color:#26264F"/>
			</linearGradient>
			<path style="fill:url(#SVGID_00000100374155579996002610000004867164289682096575_);" d="M1349.082,2518.053l10.211,60.561
				c3.104,18.411-12.027,34.625-30.635,33.101c-39.41-3.227-99.114,1.037-122.54,50.724c-6.161,13.067-7.421,27.931-3.968,41.958
				l5.621,22.832c0,0-109.972-36.234-57.998-160.809c40.814-97.825,138.67-82.278,178.814-71.09
				C1339.255,2498.303,1347.24,2507.133,1349.082,2518.053z"/>
			
				<linearGradient id="SVGID_00000169517125244696466730000005712532481616439223_" gradientUnits="userSpaceOnUse" x1="5194.6074" y1="17.8853" x2="5528.0596" y2="17.8853" gradientTransform="matrix(0.2665 0.9638 -0.9638 0.2665 -392.7988 -2659.0984)">
				<stop  offset="0" style="stop-color:#FCB148"/>
				<stop  offset="0.0521" style="stop-color:#FDBA46"/>
				<stop  offset="0.1424" style="stop-color:#FFC244"/>
				<stop  offset="0.3183" style="stop-color:#FFC444"/>
				<stop  offset="0.4849" style="stop-color:#FDB946"/>
				<stop  offset="0.7754" style="stop-color:#F99C4D"/>
				<stop  offset="0.8658" style="stop-color:#F8924F"/>
				<stop  offset="1" style="stop-color:#F8924F"/>
			</linearGradient>
			<path style="fill:url(#SVGID_00000169517125244696466730000005712532481616439223_);" d="M924.621,2365.975l239.152,147.366
				c33.672,20.749,45.787,63.864,27.852,99.115h0c-20.416,40.125-71.051,53.789-108.881,29.382l-236.51-152.591L924.621,2365.975z"
				/>
			
				<linearGradient id="SVGID_00000044139311277546236640000009683344103218826150_" gradientUnits="userSpaceOnUse" x1="-1533.1886" y1="427.4496" x2="-1760.3752" y2="714.4219" gradientTransform="matrix(0.7131 -0.7011 0.7011 0.7131 1678.8242 902.4711)">
				<stop  offset="0" style="stop-color:#444B8C"/>
				<stop  offset="0.9964" style="stop-color:#26264F"/>
			</linearGradient>
			<circle style="fill:url(#SVGID_00000044139311277546236640000009683344103218826150_);" cx="899.547" cy="2415.5" r="101.723"/>
			<g>
				
					<linearGradient id="SVGID_00000172401566491755702450000000952477856570421691_" gradientUnits="userSpaceOnUse" x1="2696.7788" y1="1810.0255" x2="2553.8635" y2="1893.2419">
					<stop  offset="0" style="stop-color:#444B8C"/>
					<stop  offset="0.9964" style="stop-color:#26264F"/>
				</linearGradient>
				<path style="fill:url(#SVGID_00000172401566491755702450000000952477856570421691_);" d="M2636.644,1828.071l-68.643-49.406
					c0,0-23.208,70.977-15.521,90.192c7.686,19.215,80.702,84.545,80.702,84.545s-6.021-55.166,11.245-98.052
					C2648.385,1845.515,2645.249,1834.264,2636.644,1828.071z"/>
				
					<linearGradient id="SVGID_00000102528607994800687060000016207241122356889742_" gradientUnits="userSpaceOnUse" x1="2543.5906" y1="1880.9913" x2="2857.6868" y2="1880.9913">
					<stop  offset="0" style="stop-color:#444B8C"/>
					<stop  offset="0.9964" style="stop-color:#26264F"/>
				</linearGradient>
				<path style="fill:url(#SVGID_00000102528607994800687060000016207241122356889742_);" d="M2568.002,1778.665
					c6.313,0,10.815,6.14,8.858,12.142c-10.312,31.623-29.162,115.356,52.479,133.773c76.099,17.167,108.057-25.059,134.636-90.263
					c3.864-9.48,14.939-13.739,24.183-9.339l59.318,28.236c9.9,4.712,13.304,17.177,7.076,26.201
					c-27.807,40.288-105.854,132.633-215.605,95.123c-134.033-45.808-91.292-163.433-79.454-190.335
					C2560.978,1780.825,2564.311,1778.665,2568.002,1778.665L2568.002,1778.665z"/>
			</g>
		</g>
	</g>
</g>
</svg>
